<svg width="24" height="24" viewBox="0 0 24 24" fill="none" xmlns="http://www.w3.org/2000/svg">
    <path d="M19.1648 20.1669C19.3202 20.013 19.4 19.8134 19.4 19.5998V10.3502V9.8502L5.1876 19.8122L4.83404 20.1657C4.83445 20.1662 4.83485 20.1666 4.83526 20.167C4.98804 20.3191 5.18586 20.3998 5.4 20.3998H18.6C18.8142 20.3998 19.012 20.3191 19.1648 20.1669ZM19.1648 20.1669C19.1644 20.1673 19.1639 20.1678 19.1635 20.1682L18.8124 19.8122L19.166 20.1657C19.1656 20.1661 19.1652 20.1665 19.1648 20.1669ZM4.40394 20.5966L4.40355 20.5962C4.134 20.3267 4.0004 20.0052 4.0004 19.5998V6.5006C4.0004 6.09519 4.134 5.77371 4.40355 5.50415L4.40394 5.50377C4.67357 5.23354 4.99493 5.0998 5.4 5.0998H6.6H7.1V4.5998V3.1754C7.1 3.0878 7.12527 3.02314 7.18819 2.95688L7.1891 2.95591C7.2369 2.90531 7.29328 2.875 7.4004 2.875C7.49758 2.875 7.56139 2.90335 7.62422 2.96967L7.62505 2.97054C7.70077 3.05009 7.7248 3.12034 7.7248 3.2006V4.5998V5.0998H8.2248H15.8004H16.3004V4.5998V3.1502C16.3004 3.09925 16.3146 3.04309 16.3916 2.96616L16.3924 2.96526C16.4594 2.89794 16.5203 2.875 16.5996 2.875C16.6698 2.875 16.7289 2.89519 16.7994 2.96967L16.8002 2.97054C16.8843 3.05886 16.9 3.12292 16.9 3.1754V4.5998V5.0998H17.4H18.6C19.0051 5.0998 19.3264 5.23354 19.5961 5.50377L19.5964 5.50415C19.866 5.77371 19.9996 6.09519 19.9996 6.5006V19.5998C19.9996 20.0052 19.866 20.3267 19.5964 20.5962L19.5961 20.5966C19.3264 20.8669 19.0051 21.0006 18.6 21.0006H5.4C4.99493 21.0006 4.67357 20.8669 4.40394 20.5966ZM4.6 8.7506V9.2506H5.1H18.9H19.4V8.7506V6.5006C19.4 6.28697 19.3201 6.08733 19.1647 5.93343C19.012 5.78127 18.8141 5.7006 18.6 5.7006H5.4C5.18585 5.7006 4.98802 5.78128 4.83524 5.93345C4.67986 6.08735 4.6 6.28698 4.6 6.5006V8.7506Z" stroke="#303461"/>
</svg>
