<svg width="20" height="21" viewBox="0 0 20 21" fill="none" xmlns="http://www.w3.org/2000/svg">
    <path d="M10 0.75C8.07164 0.75 6.18657 1.32183 4.58319 2.39317C2.97982 3.46451 1.73013 4.98726 0.992179 6.76884C0.254225 8.55042 0.061142 10.5108 0.437348 12.4021C0.813554 14.2934 1.74215 16.0307 3.10571 17.3943C4.46928 18.7579 6.20656 19.6865 8.09787 20.0627C9.98919 20.4389 11.9496 20.2458 13.7312 19.5078C15.5127 18.7699 17.0355 17.5202 18.1068 15.9168C19.1782 14.3134 19.75 12.4284 19.75 10.5C19.7473 7.91498 18.7192 5.43661 16.8913 3.60872C15.0634 1.78084 12.585 0.75273 10 0.75ZM7.52782 14.25H12.4722C11.9688 15.9694 11.125 17.5191 10 18.7397C8.875 17.5191 8.03125 15.9694 7.52782 14.25ZM7.1875 12.75C6.93876 11.2603 6.93876 9.73969 7.1875 8.25H12.8125C13.0613 9.73969 13.0613 11.2603 12.8125 12.75H7.1875ZM1.75 10.5C1.74935 9.73916 1.85442 8.98192 2.06219 8.25H5.66782C5.44407 9.74166 5.44407 11.2583 5.66782 12.75H2.06219C1.85442 12.0181 1.74935 11.2608 1.75 10.5ZM12.4722 6.75H7.52782C8.03125 5.03062 8.875 3.48094 10 2.26031C11.125 3.48094 11.9688 5.03062 12.4722 6.75ZM14.3322 8.25H17.9378C18.3541 9.72112 18.3541 11.2789 17.9378 12.75H14.3322C14.5559 11.2583 14.5559 9.74166 14.3322 8.25ZM17.3472 6.75H14.0256C13.6429 5.24392 13.0001 3.81623 12.1263 2.53125C13.2427 2.83127 14.2839 3.36162 15.1831 4.08818C16.0823 4.81475 16.8194 5.72146 17.3472 6.75ZM7.87375 2.53125C6.9999 3.81623 6.35713 5.24392 5.97438 6.75H2.65282C3.18056 5.72146 3.91772 4.81475 4.81689 4.08818C5.71606 3.36162 6.75733 2.83127 7.87375 2.53125ZM2.65282 14.25H5.97438C6.35713 15.7561 6.9999 17.1838 7.87375 18.4688C6.75733 18.1687 5.71606 17.6384 4.81689 16.9118C3.91772 16.1852 3.18056 15.2785 2.65282 14.25ZM12.1263 18.4688C13.0001 17.1838 13.6429 15.7561 14.0256 14.25H17.3472C16.8194 15.2785 16.0823 16.1852 15.1831 16.9118C14.2839 17.6384 13.2427 18.1687 12.1263 18.4688Z" fill="#9CA3AF"/>
</svg>