<svg width="19" height="20" viewBox="0 0 19 20" xmlns="http://www.w3.org/2000/svg">
    <defs>
        <linearGradient id="gradient" x1="0%" y1="0%" x2="100%" y2="0%">
            <stop offset="0%" style="stop-color:#6A11CB;"/>
            <stop offset="100%" style="stop-color:#2575FC;"/>
        </linearGradient>
    </defs>
    <path d="M15.3747 8.207L18.1066 5.63638L18.1225 5.62044C18.6852 5.05777 19.0013 4.29462 19.0013 3.49888C19.0013 2.70314 18.6852 1.93999 18.1225 1.37732C17.5598 0.814642 16.7967 0.498535 16.0009 0.498535C15.2052 0.498535 14.4421 0.814642 13.8794 1.37732C13.8794 1.38294 13.8691 1.38763 13.8634 1.39325L11.2928 4.12513L3.51157 1.29388C3.37746 1.2451 3.23221 1.2356 3.09289 1.26648C2.95356 1.29737 2.82594 1.36737 2.72501 1.46825L0.475007 3.71825C0.396603 3.79672 0.33658 3.8916 0.299263 3.99606C0.261946 4.10052 0.248265 4.21196 0.259205 4.32234C0.270144 4.43272 0.305433 4.53931 0.362527 4.63441C0.419622 4.72951 0.497101 4.81076 0.589382 4.87231L6.57907 8.86513L5.18969 10.2498H3.25001C3.05136 10.2499 2.86086 10.3288 2.72032 10.4692L0.470319 12.7192C0.382571 12.8067 0.317884 12.9146 0.282043 13.0333C0.246201 13.1519 0.240323 13.2776 0.264934 13.3991C0.289545 13.5206 0.343878 13.6341 0.423073 13.7294C0.502268 13.8247 0.603858 13.899 0.718757 13.9454L4.17063 15.3264L5.54876 18.7717L5.55438 18.7867C5.60206 18.9021 5.67779 19.0038 5.77471 19.0825C5.87164 19.1612 5.98668 19.2145 6.10941 19.2375C6.23214 19.2605 6.35867 19.2525 6.47752 19.2142C6.59637 19.1759 6.70378 19.1086 6.79001 19.0183L9.02782 16.7795C9.09784 16.7101 9.15351 16.6277 9.19163 16.5368C9.22976 16.4459 9.24959 16.3484 9.25001 16.2498V14.3101L10.6338 12.9264L14.6266 18.9161C14.6881 19.0083 14.7694 19.0858 14.8645 19.1429C14.9596 19.2 15.0662 19.2353 15.1765 19.2462C15.2869 19.2572 15.3984 19.2435 15.5028 19.2062C15.6073 19.1689 15.7022 19.1088 15.7806 19.0304L18.0306 16.7804C18.1315 16.6795 18.2015 16.5519 18.2324 16.4126C18.2633 16.2732 18.2538 16.128 18.205 15.9939L15.3747 8.207ZM15.3681 17.3223L11.3753 11.3336C11.3141 11.2406 11.233 11.1624 11.1378 11.1047C11.0426 11.0469 10.9358 11.0111 10.825 10.9998C10.7997 10.9998 10.7753 10.9998 10.7509 10.9998C10.6524 10.9999 10.5547 11.0193 10.4637 11.0571C10.3726 11.0949 10.2899 11.1503 10.2203 11.2201L7.97032 13.4701C7.82959 13.6105 7.75035 13.801 7.75001 13.9998V15.9395L6.52469 17.1648L5.44657 14.4686C5.40885 14.375 5.35262 14.2899 5.28126 14.2186C5.2099 14.1472 5.12486 14.091 5.03126 14.0533L2.33688 12.9751L3.56126 11.7498H5.50001C5.59853 11.7499 5.6961 11.7306 5.78714 11.6929C5.87819 11.6553 5.96093 11.6001 6.03063 11.5304L8.28063 9.28044C8.35921 9.20197 8.41938 9.10703 8.45679 9.00247C8.49421 8.89792 8.50795 8.78636 8.497 8.67585C8.48606 8.56534 8.45071 8.45864 8.39352 8.36346C8.33632 8.26827 8.2587 8.18698 8.16626 8.12544L2.17751 4.13169L3.44313 2.867L11.245 5.70388C11.3825 5.75439 11.5317 5.76355 11.6743 5.73023C11.8169 5.69691 11.9467 5.62257 12.0475 5.51638L14.9481 2.43106C15.2309 2.15661 15.6102 2.00442 16.0042 2.00739C16.3982 2.01035 16.7753 2.16824 17.0538 2.44692C17.3324 2.7256 17.4901 3.1027 17.4929 3.49671C17.4957 3.89073 17.3433 4.27003 17.0688 4.55263L13.9872 7.45232C13.881 7.55317 13.8067 7.6829 13.7733 7.8255C13.74 7.96811 13.7492 8.11735 13.7997 8.25482L16.6366 16.0567L15.3681 17.3223Z" fill="url(#gradient)"/>
</svg>
