<svg width="112" height="50" viewBox="0 0 112 50" fill="none" xmlns="http://www.w3.org/2000/svg">
    <g clip-path="url(#clip0_98_307)">
        <path d="M45.404 27.1268L47.1402 26.8383L47.519 26.7754C48.5783 26.6426 49.1813 27.0182 49.3282 27.9021C49.4191 28.4492 49.2768 28.9595 48.9013 29.4327C48.5223 29.885 48.0277 30.1618 47.4174 30.2632L47.0386 30.3262L44.6079 30.73C43.6609 30.8874 42.9051 30.8292 42.3406 30.5553C41.7761 30.2815 41.4378 29.8078 41.3259 29.1344C41.291 28.924 41.2823 28.7416 41.2999 28.5873C41.314 28.4119 41.3562 28.1454 41.4266 27.7877L42.9449 21.1125L43.0346 20.6759C43.3263 19.438 43.9983 18.7317 45.0505 18.5568C45.4925 18.4834 45.8852 18.5695 46.2288 18.8152C46.5899 19.0363 46.8055 19.3573 46.8754 19.7782C46.9279 20.0939 46.9014 20.4551 46.796 20.8619L46.7116 21.3301L45.404 27.1268ZM45.9505 17.7261C45.3613 17.824 44.8212 17.6975 44.3304 17.3465C43.8396 16.9955 43.5452 16.5254 43.4473 15.9362C43.3494 15.3469 43.4654 14.8086 43.7953 14.3213C44.1462 13.8305 44.6163 13.5361 45.2056 13.4382C45.8159 13.3368 46.3665 13.4616 46.8573 13.8125C47.3481 14.1635 47.6442 14.6441 47.7457 15.2544C47.8436 15.8437 47.717 16.3837 47.3661 16.8745C47.0327 17.3408 46.5608 17.6247 45.9505 17.7261ZM58.4804 28.425L53.9979 29.1698C53.3665 29.2747 52.7581 29.2569 52.1724 29.1163C51.6043 28.9512 51.0854 28.6914 50.6156 28.3369C50.1669 27.979 49.7883 27.5228 49.48 26.9686C49.1681 26.3932 48.951 25.7373 48.8286 25.0007C48.6712 24.0537 48.6998 23.119 48.9142 22.1968C49.1285 21.2745 49.4867 20.4364 49.9886 19.6826C50.4905 18.9289 51.1098 18.2961 51.8466 17.7844C52.6044 17.2692 53.4357 16.9365 54.3407 16.7861C55.5613 16.5833 56.5958 16.7574 57.4443 17.3084C58.3138 17.856 58.8412 18.6875 59.0265 19.8028C59.1489 20.5394 59.0609 21.1812 58.7625 21.7281C58.4642 22.2751 58.0098 22.5993 57.3995 22.7007C56.9786 22.7706 56.6104 22.7021 56.2949 22.495C56.0004 22.2844 55.8339 21.9985 55.7955 21.6372L55.6801 20.9428C55.6522 20.6446 55.5173 20.4184 55.2754 20.2639C55.051 20.085 54.7915 20.0199 54.4969 20.0689C54.1602 20.1248 53.8392 20.2755 53.5339 20.5209C53.2497 20.7627 53.0076 21.0625 52.8075 21.4201C52.6074 21.7777 52.4669 22.1687 52.3861 22.593C52.3052 23.0174 52.3015 23.4505 52.3749 23.8924C52.5253 24.7974 52.9283 25.3359 53.5841 25.5081C53.784 25.5397 54.0891 25.5539 54.4994 25.5506C54.9063 25.5263 55.2886 25.4844 55.6464 25.4249L58.5505 24.9424L58.9293 24.8794C59.9886 24.7467 60.5916 25.1222 60.7385 26.0061C60.8294 26.5533 60.6871 27.0635 60.3116 27.5368C59.9326 27.989 59.438 28.2659 58.8277 28.3673L58.4804 28.425ZM69.7059 19.8773L72.6924 23.2089C72.9308 23.472 73.0938 23.672 73.1814 23.8088C73.269 23.9457 73.3285 24.1088 73.36 24.2982C73.3985 24.5297 73.3826 24.7594 73.3123 24.9873C73.2421 25.2152 73.1262 25.4291 72.9648 25.629C72.8244 25.8253 72.6472 25.9953 72.4332 26.139C72.2192 26.2827 71.9859 26.3755 71.7334 26.4175C71.2493 26.4979 70.8338 26.3399 70.4868 25.9434L70.2502 25.6907L65.7914 20.917L64.7686 25.4987C64.5823 26.3298 64.326 26.9346 63.9996 27.3133C63.6943 27.6884 63.2575 27.9231 62.6893 28.0176C62.2474 28.091 61.8459 28.0171 61.4847 27.796C61.1446 27.5714 60.9396 27.2486 60.8697 26.8277C60.8172 26.5121 60.8437 26.1508 60.9491 25.744L61.0335 25.2759L64.9298 7.92252L65.0194 7.48592C65.3322 6.24453 65.9936 5.53991 67.0038 5.37206C67.4457 5.29863 67.8385 5.38475 68.1821 5.63042C68.5432 5.85155 68.7587 6.17257 68.8287 6.59346C68.8811 6.90913 68.8546 7.27036 68.7492 7.67714L68.6596 8.11374L66.324 18.4605L69.3715 15.3266C69.7785 14.913 70.0996 14.6325 70.3346 14.4854C70.5662 14.3171 70.8187 14.2103 71.0923 14.1648C71.5132 14.0949 71.8849 14.1845 72.2075 14.4337C72.5476 14.6583 72.7526 14.9811 72.8225 15.402C72.8924 15.8228 72.8467 16.1981 72.6852 16.5277C72.5447 16.8538 72.2148 17.2762 71.6955 17.795L69.7059 19.8773ZM80.0815 12.736L80.555 12.6574L80.9338 12.5944C81.986 12.4196 82.5873 12.7846 82.7377 13.6896C82.8286 14.2367 82.6863 14.7469 82.3108 15.2202C81.9353 15.6935 81.4424 15.9809 80.8321 16.0823L80.4533 16.1452L79.3484 16.3288L78.1306 21.6889L79.8352 21.4057L80.214 21.3427C81.2732 21.21 81.8763 21.5855 82.0232 22.4694C82.1141 23.0166 81.9718 23.5268 81.5963 24.0001C81.2173 24.4523 80.7226 24.7292 80.1123 24.8306L79.7335 24.8935L76.9872 25.3499C76.2085 25.4792 75.558 25.4035 75.0356 25.1227C74.5307 24.8173 74.2275 24.3595 74.1261 23.7492C74.0597 23.3493 74.0844 22.9127 74.2004 22.4393L74.3744 21.7292L75.4341 16.9792C74.1293 17.196 73.4 16.8414 73.2462 15.9155C73.1552 15.3683 73.2993 14.8686 73.6783 14.4163C74.0538 13.9431 74.5467 13.6557 75.157 13.5543L75.5358 13.4914L76.2303 13.376L76.7153 11.2193L76.8365 10.7774C77.1282 9.53956 77.7792 8.83669 78.7893 8.66884C79.2313 8.59541 79.6223 8.671 79.9624 8.89563C80.3024 9.12026 80.5075 9.44302 80.5774 9.86391C80.6089 10.0533 80.6158 10.2901 80.5981 10.5741C80.5769 10.8372 80.5259 11.116 80.4451 11.4105L80.0815 12.736ZM93.8103 19.0835L95.5781 18.7898L95.9569 18.7269C97.0161 18.5941 97.6192 18.9697 97.7661 19.8536C97.857 20.4007 97.7147 20.911 97.3392 21.3842C96.9812 21.833 96.4971 22.1081 95.8868 22.2095L95.508 22.2724L92.5407 22.7655C92.225 22.8179 91.9041 22.7739 91.578 22.6335C91.2519 22.493 91.0118 22.2842 90.8576 22.0071C90.4013 22.7749 89.7628 23.227 88.942 23.3634L86.4167 23.783C86.2272 23.8145 85.9449 23.8074 85.5697 23.7616C85.1909 23.6948 84.8981 23.6245 84.6912 23.5507C84.295 23.3787 83.9322 23.0821 83.6027 22.6611C83.2697 22.219 83.0648 21.7665 82.9878 21.3035C82.9424 21.0299 82.9285 20.7511 82.9462 20.467C82.9849 20.1795 83.0394 19.8568 83.1097 19.4991L84.3698 14.0023C84.556 13.1712 84.8018 12.568 85.1072 12.1929C85.43 11.7933 85.865 11.548 86.4122 11.4571C86.8541 11.3836 87.2451 11.4592 87.5852 11.6838C87.9464 11.905 88.1619 12.226 88.2318 12.6469C88.2843 12.9626 88.2596 13.3343 88.1576 13.7621L88.068 14.1987L87.0821 18.4174L87.003 18.9171C86.9502 19.2503 86.9308 19.4589 86.9448 19.5431C86.9798 19.7536 87.0919 19.9079 87.2813 20.0062C87.4706 20.1045 87.6916 20.1327 87.9441 20.0907C88.5123 19.9963 88.8736 19.893 89.028 19.7809C89.3227 19.6022 89.577 19.3761 89.7911 19.1026C90.0227 18.8046 90.1684 18.5101 90.2282 18.219L91.3828 13.064C91.5656 12.2119 91.8097 11.5982 92.115 11.2231C92.4413 10.8445 92.8886 10.608 93.4568 10.5136C93.8988 10.4401 94.2898 10.5157 94.6299 10.7404C94.991 10.9615 95.2065 11.2825 95.2765 11.7034C95.3114 11.9139 95.3131 12.119 95.2814 12.3189C95.2673 12.4943 95.211 12.8064 95.1126 13.2553L93.8103 19.0835ZM100.438 12.8245L100.143 14.1711C99.9951 14.8444 99.7967 15.3424 99.5476 15.6649C99.2949 15.9664 98.9581 16.1521 98.5372 16.222C98.1163 16.292 97.7253 16.2164 97.3642 15.9953C97.0031 15.7741 96.7893 15.4636 96.7228 15.0638C96.6949 14.8954 96.6897 14.7341 96.7073 14.5798C96.7249 14.4255 96.7776 14.1572 96.8655 13.775L97.8884 9.19334C98.0254 8.58666 98.201 8.1466 98.4151 7.87314C98.6502 7.59619 98.9782 7.42275 99.3991 7.35281C100.178 7.22343 100.711 7.50251 100.998 8.19006L101.203 8.64258C101.308 8.88463 101.418 9.02848 101.534 9.07413C101.671 9.11628 101.981 9.09715 102.465 9.01672L106.096 8.41352L106.474 8.35057C107.569 8.16874 108.195 8.55133 108.352 9.49835C108.408 9.83506 108.35 10.2015 108.178 10.5978C108.023 10.9694 107.809 11.2429 107.536 11.4181C107.402 11.5268 107.243 11.6074 107.057 11.6599C106.871 11.7124 106.559 11.7859 106.12 11.8804L105.952 12.0381C105.759 12.3081 105.592 12.5412 105.452 12.7376C105.329 12.9093 105.216 13.0794 105.115 13.2477C105.009 13.3949 104.916 13.551 104.836 13.7158C104.772 13.856 104.692 14.0208 104.593 14.2101C104.369 14.68 104.225 15.0499 104.161 15.32C104.095 15.5689 104.081 15.8092 104.119 16.0407C104.262 16.9035 104.808 17.2562 105.755 17.0989L107.68 16.7789L108.059 16.716C109.118 16.5832 109.721 16.9588 109.868 17.8427C109.959 18.3898 109.817 18.9001 109.441 19.3733C109.083 19.8221 108.599 20.0972 107.989 20.1986L107.61 20.2615L104.58 20.7651C104.474 20.7825 104.313 20.7877 104.096 20.7806C103.878 20.7735 103.638 20.7593 103.375 20.7382C102.649 20.6642 102.011 20.3377 101.46 19.7587C100.928 19.1552 100.588 18.4115 100.441 17.5276C100.322 16.8121 100.386 16.0879 100.631 15.355C100.874 14.6011 101.346 13.6684 102.048 12.557L100.438 12.8245Z" fill="url(#paint0_linear_98_307)"/>
        <path d="M20 11C16.3295 11 12.7576 12.188 9.81825 14.3863C6.87891 16.5847 4.73002 19.6753 3.69283 23.1962C2.65564 26.7171 2.78587 30.4792 4.06405 33.9199C5.34222 37.3607 7.69969 40.2953 10.784 42.2852C13.8683 44.275 17.5138 45.2131 21.1756 44.9593C24.8373 44.7055 28.3185 43.2734 31.0988 40.877C33.8791 38.4807 35.8091 35.2488 36.6003 31.6646C37.3916 28.0804 37.0015 24.3364 35.4884 20.9923" stroke="url(#paint1_linear_98_307)" stroke-width="2" stroke-linecap="round" stroke-linejoin="round"/>
        <path d="M31.0756 16.29L29.5178 23.0294C29.3683 23.7023 29.21 24.3874 29.0429 25.0848C28.8969 25.7788 28.7706 26.329 28.6641 26.7355C27.9464 29.6196 26.9328 31.8171 25.6233 33.328C24.3137 34.8389 22.6168 35.7646 20.5324 36.1051C19.4376 36.284 18.4083 36.2684 17.4445 36.0584C16.4841 35.8694 15.6243 35.5019 14.865 34.9559C14.1302 34.4274 13.5098 33.7398 13.004 32.8929C12.5227 32.0637 12.1926 31.1016 12.0137 30.0068C11.7592 28.4488 11.8448 26.9217 12.2704 25.4255C12.7172 23.9259 13.4125 22.5585 14.3564 21.3235C15.3213 20.0851 16.5013 19.0385 17.8964 18.1837C19.2881 17.3078 20.8156 16.7341 22.4789 16.4623C23.4052 16.311 24.1486 16.3625 24.7089 16.6168C25.2693 16.8711 25.5993 17.3036 25.6991 17.9141C25.8126 18.6089 25.6425 19.1555 25.1888 19.5539C24.7561 19.9488 23.9238 20.2793 22.692 20.5454C21.6285 20.784 20.6663 21.1789 19.8052 21.7303C18.9653 22.2782 18.2617 22.9336 17.6946 23.6963C17.1241 24.438 16.7076 25.2626 16.4451 26.1702C16.2037 27.0742 16.1604 28 16.3152 28.9474C16.4941 30.0423 16.9298 30.8573 17.6225 31.3926C18.3397 31.9456 19.2142 32.1378 20.2458 31.9692C21.3617 31.7869 22.3284 31.0886 23.146 29.8742C23.3715 29.5348 23.5833 29.1111 23.7814 28.6032C23.9828 28.1163 24.2041 27.4857 24.445 26.7114C24.5868 26.2559 24.7251 25.7794 24.86 25.2818C25.0125 24.7597 25.1439 24.2411 25.2543 23.7259L28.4401 9.68452L26.7663 9.95797L26.3557 10.025C25.2119 10.1687 24.5609 9.75624 24.4027 8.78774C24.3029 8.17717 24.4502 7.62351 24.8446 7.12675C25.2601 6.62656 25.8047 6.32142 26.4784 6.21136L26.889 6.14429L32.7631 5.18464C34.7422 4.86132 36.2551 4.99244 37.3019 5.578C38.3697 6.16011 39.0309 7.23018 39.2854 8.78819C39.4505 9.79879 39.3737 10.7841 39.055 11.744C38.7539 12.6795 38.248 13.4863 37.5374 14.1644C37.0695 14.6083 36.4914 14.9729 35.8031 15.2583C35.1358 15.5402 34.2653 15.7689 33.1915 15.9443L31.0756 16.29ZM31.9562 12.3525L33.1879 12.1513C34.8301 11.883 35.5412 11.0751 35.321 9.72766C35.2626 9.36974 35.0915 9.11667 34.8079 8.96846C34.5209 8.79919 34.1668 8.74896 33.7457 8.81775L32.7035 8.98801L31.9562 12.3525Z" fill="url(#paint2_linear_98_307)"/>
    </g>
    <defs>
        <linearGradient id="paint0_linear_98_307" x1="72.0198" y1="-0.181249" x2="77.5929" y2="33.3589" gradientUnits="userSpaceOnUse">
            <stop stop-color="#6A11CB"/>
            <stop offset="1" stop-color="#2575FC"/>
        </linearGradient>
        <linearGradient id="paint1_linear_98_307" x1="20" y1="11" x2="20" y2="45" gradientUnits="userSpaceOnUse">
            <stop stop-color="#6A11CB"/>
            <stop offset="1" stop-color="#2575FC"/>
        </linearGradient>
        <linearGradient id="paint2_linear_98_307" x1="21.3103" y1="2.33794" x2="26.7921" y2="35.8931" gradientUnits="userSpaceOnUse">
            <stop stop-color="#6A11CB"/>
            <stop offset="1" stop-color="#2575FC"/>
        </linearGradient>
        <clipPath id="clip0_98_307">
            <rect width="112" height="47" fill="white" transform="translate(0 2)"/>
        </clipPath>
    </defs>
</svg>
