<svg width="18" height="21" viewBox="0 0 18 21" fill="none" xmlns="http://www.w3.org/2000/svg">
    <path d="M14.2397 12.8755C14.0452 13.9618 13.5226 14.9624 12.7422 15.7426C11.9618 16.5229 10.961 17.0453 9.87469 17.2395C9.83345 17.2461 9.79176 17.2496 9.75 17.2498C9.56187 17.2498 9.38063 17.179 9.24222 17.0516C9.10381 16.9242 9.01834 16.7494 9.00277 16.5619C8.9872 16.3745 9.04265 16.188 9.15814 16.0394C9.27362 15.8909 9.44071 15.7913 9.62625 15.7602C11.1797 15.4986 12.4978 14.1805 12.7612 12.6242C12.7946 12.428 12.9045 12.2531 13.0667 12.138C13.229 12.0228 13.4304 11.9768 13.6266 12.0102C13.8227 12.0435 13.9976 12.1534 14.1128 12.3156C14.228 12.4779 14.2739 12.6793 14.2406 12.8755H14.2397ZM17.25 11.9998C17.25 14.1879 16.3808 16.2863 14.8336 17.8335C13.2865 19.3807 11.188 20.2498 9 20.2498C6.81196 20.2498 4.71354 19.3807 3.16637 17.8335C1.61919 16.2863 0.75 14.1879 0.75 11.9998C0.75 9.38235 1.78125 6.70579 3.81188 4.04516C3.87615 3.96091 3.95755 3.89124 4.05071 3.84074C4.14387 3.79024 4.24667 3.76005 4.35235 3.75217C4.45802 3.74429 4.56417 3.75889 4.66379 3.79501C4.76341 3.83113 4.85425 3.88795 4.93031 3.96172L7.19156 6.15641L9.25406 0.492973C9.29527 0.380017 9.36303 0.278624 9.45163 0.197341C9.54023 0.116058 9.64707 0.0572676 9.76315 0.0259268C9.87923 -0.00541401 10.0011 -0.00838687 10.1186 0.017259C10.2361 0.0429048 10.3457 0.0964175 10.4381 0.173286C12.4884 1.87485 17.25 6.42641 17.25 11.9998ZM15.75 11.9998C15.75 7.67891 12.3947 3.94485 10.2928 2.03141L8.205 7.75672C8.16215 7.87431 8.09055 7.97931 7.99674 8.06215C7.90292 8.14499 7.78986 8.20303 7.66787 8.23099C7.54588 8.25895 7.41883 8.25593 7.2983 8.22222C7.17777 8.18851 7.0676 8.12517 6.97781 8.03797L4.50562 5.63985C3.00844 7.80079 2.25 9.93735 2.25 11.9998C2.25 13.7901 2.96116 15.5069 4.22703 16.7728C5.4929 18.0387 7.20979 18.7498 9 18.7498C10.7902 18.7498 12.5071 18.0387 13.773 16.7728C15.0388 15.5069 15.75 13.7901 15.75 11.9998Z" fill="#9CA3AF"/>
</svg>
