<svg width="24" height="20" viewBox="0 0 24 20" fill="none" xmlns="http://www.w3.org/2000/svg">
    <path d="M22.5 18H21V7.5C21 7.10217 20.842 6.72064 20.5607 6.43934C20.2794 6.15803 19.8978 6 19.5 6H13.5V1.5C13.5002 1.22837 13.4266 0.961792 13.2871 0.728717C13.1476 0.495642 12.9474 0.304819 12.708 0.176614C12.4685 0.0484098 12.1987 -0.0123635 11.9274 0.000781128C11.6561 0.0139257 11.3935 0.100495 11.1675 0.251248L3.6675 5.25C3.46176 5.38727 3.29315 5.57328 3.17669 5.79148C3.06023 6.00968 2.99953 6.25329 3 6.50062V18H1.5C1.30109 18 1.11032 18.079 0.96967 18.2197C0.829018 18.3603 0.75 18.5511 0.75 18.75C0.75 18.9489 0.829018 19.1397 0.96967 19.2803C1.11032 19.421 1.30109 19.5 1.5 19.5H22.5C22.6989 19.5 22.8897 19.421 23.0303 19.2803C23.171 19.1397 23.25 18.9489 23.25 18.75C23.25 18.5511 23.171 18.3603 23.0303 18.2197C22.8897 18.079 22.6989 18 22.5 18ZM19.5 7.5V18H13.5V7.5H19.5ZM4.5 6.50062L12 1.5V18H4.5V6.50062ZM10.5 9V10.5C10.5 10.6989 10.421 10.8897 10.2803 11.0303C10.1397 11.171 9.94891 11.25 9.75 11.25C9.55109 11.25 9.36032 11.171 9.21967 11.0303C9.07902 10.8897 9 10.6989 9 10.5V9C9 8.80109 9.07902 8.61032 9.21967 8.46967C9.36032 8.32902 9.55109 8.25 9.75 8.25C9.94891 8.25 10.1397 8.32902 10.2803 8.46967C10.421 8.61032 10.5 8.80109 10.5 9ZM7.5 9V10.5C7.5 10.6989 7.42098 10.8897 7.28033 11.0303C7.13968 11.171 6.94891 11.25 6.75 11.25C6.55109 11.25 6.36032 11.171 6.21967 11.0303C6.07902 10.8897 6 10.6989 6 10.5V9C6 8.80109 6.07902 8.61032 6.21967 8.46967C6.36032 8.32902 6.55109 8.25 6.75 8.25C6.94891 8.25 7.13968 8.32902 7.28033 8.46967C7.42098 8.61032 7.5 8.80109 7.5 9ZM7.5 14.25V15.75C7.5 15.9489 7.42098 16.1397 7.28033 16.2803C7.13968 16.421 6.94891 16.5 6.75 16.5C6.55109 16.5 6.36032 16.421 6.21967 16.2803C6.07902 16.1397 6 15.9489 6 15.75V14.25C6 14.0511 6.07902 13.8603 6.21967 13.7197C6.36032 13.579 6.55109 13.5 6.75 13.5C6.94891 13.5 7.13968 13.579 7.28033 13.7197C7.42098 13.8603 7.5 14.0511 7.5 14.25ZM10.5 14.25V15.75C10.5 15.9489 10.421 16.1397 10.2803 16.2803C10.1397 16.421 9.94891 16.5 9.75 16.5C9.55109 16.5 9.36032 16.421 9.21967 16.2803C9.07902 16.1397 9 15.9489 9 15.75V14.25C9 14.0511 9.07902 13.8603 9.21967 13.7197C9.36032 13.579 9.55109 13.5 9.75 13.5C9.94891 13.5 10.1397 13.579 10.2803 13.7197C10.421 13.8603 10.5 14.0511 10.5 14.25Z" fill="#9CA3AF"/>
</svg>
