<svg width="20" height="20" viewBox="0 0 20 20" fill="none" xmlns="http://www.w3.org/2000/svg">
    <path d="M9.74999 20.0002C7.93682 20.0019 6.1591 19.498 4.61655 18.5451C3.074 17.5921 1.82772 16.2279 1.01775 14.6057C0.20777 12.9836 -0.133817 11.1676 0.0313611 9.36201C0.196539 7.55638 0.861938 5.83259 1.9528 4.38428C3.20018 2.73503 4.93595 1.5212 6.91311 0.915535L9.74999 20.0002ZM9.74999 20.0002C11.8653 20.0067 13.9244 19.3191 15.6112 18.0427L9.74999 20.0002ZM18.2891 12.6254L18.2904 12.625C18.3339 12.6117 18.3801 12.6105 18.4241 12.6215C18.468 12.6325 18.5082 12.6552 18.5402 12.6872C18.572 12.7193 18.5945 12.7593 18.6054 12.8031C18.6163 12.847 18.615 12.8931 18.6018 12.9363C18.0269 14.8128 16.8749 16.4601 15.3096 17.6439L15.3095 17.644C13.7099 18.8543 11.7574 19.5064 9.75153 19.5002L9.74952 19.5002C8.02934 19.5018 6.34278 19.0238 4.87933 18.1197C3.41588 17.2156 2.23352 15.9214 1.46508 14.3824C0.696645 12.8434 0.372575 11.1206 0.529282 9.40756C0.685974 7.6947 1.31714 6.05946 2.35188 4.68551C3.53578 3.12035 5.18314 1.96842 7.05956 1.39361L7.06025 1.39339C7.10369 1.38002 7.14995 1.37874 7.19406 1.38969C7.23817 1.40064 7.27846 1.42341 7.3106 1.45555L7.66273 1.10341L7.3106 1.45555C7.34274 1.48769 7.36551 1.52798 7.37646 1.57208C7.38741 1.6162 7.38613 1.66246 7.37275 1.70589L7.37201 1.70835C6.91349 3.22503 6.87505 4.83769 7.26077 6.3745C7.64649 7.91131 8.44193 9.31468 9.56232 10.4351C10.6827 11.5555 12.0861 12.3509 13.6229 12.7366C15.1597 13.1224 16.7724 13.0839 18.2891 12.6254ZM15.0102 17.244L15.011 17.2433C16.1027 16.4174 16.9878 15.3493 17.5966 14.1232L18.0193 13.2717L17.0782 13.4058C16.6384 13.4685 16.1946 13.5001 15.7504 13.5002C13.2978 13.4976 10.9465 12.5222 9.21227 10.7879C7.47815 9.05383 6.50273 6.70266 6.49999 4.25027C6.50026 3.80679 6.5318 3.36387 6.59436 2.92482L6.72841 1.98407L5.87716 2.40637C4.65122 3.01455 3.58315 3.89894 2.757 4.98994L2.7562 4.991C1.48733 6.67593 0.869807 8.76251 1.01731 10.8666C1.16481 12.9707 2.06741 14.9507 3.55895 16.4422C5.0505 17.9336 7.03058 18.836 9.1347 18.9834C11.2388 19.1307 13.3254 18.513 15.0102 17.244Z" stroke="#303461"/>
</svg>
