<svg width="22" height="22" viewBox="0 0 22 22" fill="none" xmlns="http://www.w3.org/2000/svg">
    <path fill-rule="evenodd" clip-rule="evenodd" d="M2.914 11.0637C3.26272 10.7167 3.80047 10.5743 4.50309 10.5156L3.8186 7.47638C3.75213 7.30807 3.82637 7.23901 3.97915 7.22261L4.71025 7.28044C4.82591 7.30807 4.92086 7.36503 4.98042 7.46948L6.88975 10.1557L10.8776 9.99683L9.43178 2.50368C9.38516 2.32414 9.45076 2.23955 9.65447 2.26889L10.8137 2.39923L15.0027 9.86304L18.5641 9.74392C19.6413 9.82161 20.4259 10.1591 20.7505 10.696C20.9292 10.9921 20.9421 11.1466 20.7928 11.4426C20.4984 12.0218 19.6905 12.3878 18.5641 12.4698L15.0027 12.3507L10.8137 19.8145L9.65447 19.9448C9.45163 19.9733 9.38603 19.8887 9.43178 19.7101L10.8759 12.2169L6.88888 12.0572L4.97956 14.7434C4.92086 14.847 4.82678 14.9048 4.70939 14.9324L3.97828 14.9903C3.82637 14.9747 3.75127 14.9048 3.81773 14.7365L4.50223 11.6973C3.79702 11.6377 3.25926 11.4953 2.90968 11.1457C2.87861 11.1129 2.88292 11.0948 2.914 11.0637Z" fill="url(#paint0_linear_103_317)"/>
    <defs>
        <linearGradient id="paint0_linear_103_317" x1="15.9099" y1="5.80372" x2="5.30356" y2="16.4101" gradientUnits="userSpaceOnUse">
            <stop stop-color="#6A11CB"/>
            <stop offset="1" stop-color="#2575FC"/>
        </linearGradient>
    </defs>
</svg>
