<svg width="12" height="7" viewBox="0 0 12 7" fill="none" xmlns="http://www.w3.org/2000/svg">
    <path d="M6.21325 6.66141C6.09915 6.66141 5.98857 6.64218 5.88152 6.60371C5.77447 6.56524 5.67416 6.49922 5.58057 6.40564L1.07095 1.89604C0.926081 1.75117 0.856214 1.57809 0.861347 1.37681C0.866464 1.17553 0.941464 1.00245 1.08635 0.857586C1.23121 0.712719 1.40685 0.640286 1.61325 0.640286C1.81965 0.640286 1.99528 0.712719 2.14015 0.857586L6.21325 4.93069L10.3017 0.842211C10.4466 0.697344 10.6197 0.627469 10.8209 0.632586C11.0222 0.637719 11.1953 0.712719 11.3401 0.857586C11.485 1.00245 11.5575 1.17809 11.5575 1.38451C11.5575 1.59091 11.485 1.76654 11.3401 1.91141L6.84592 6.40564C6.75234 6.49922 6.65362 6.56524 6.54977 6.60371C6.44594 6.64218 6.33376 6.66141 6.21325 6.66141Z" fill="#303461"/>
</svg>
