<svg width="24" height="24" viewBox="0 0 24 24" fill="none" xmlns="http://www.w3.org/2000/svg">
    <g clip-path="url(#clip0_18_839)">
        <path d="M17.5385 12C17.5385 12.2448 17.4412 12.4796 17.2681 12.6527C17.095 12.8258 16.8602 12.9231 16.6154 12.9231H7.38462C7.1398 12.9231 6.90502 12.8258 6.73191 12.6527C6.5588 12.4796 6.46154 12.2448 6.46154 12C6.46154 11.7552 6.5588 11.5204 6.73191 11.3473C6.90502 11.1742 7.1398 11.0769 7.38462 11.0769H16.6154C16.8602 11.0769 17.095 11.1742 17.2681 11.3473C17.4412 11.5204 17.5385 11.7552 17.5385 12ZM24 12C24 14.3734 23.2962 16.6934 21.9776 18.6668C20.6591 20.6402 18.7849 22.1783 16.5922 23.0865C14.3995 23.9948 11.9867 24.2324 9.65892 23.7694C7.33115 23.3064 5.19295 22.1635 3.51472 20.4853C1.83649 18.807 0.693605 16.6689 0.230582 14.3411C-0.232441 12.0133 0.00519949 9.60051 0.913451 7.4078C1.8217 5.21508 3.35977 3.34094 5.33316 2.02236C7.30655 0.703788 9.62663 0 12 0C15.1816 0.00335979 18.2319 1.26872 20.4816 3.51843C22.7313 5.76814 23.9966 8.81843 24 12ZM22.1538 12C22.1538 9.99176 21.5583 8.02861 20.4426 6.35882C19.3269 4.68903 17.7411 3.38759 15.8857 2.61907C14.0303 1.85055 11.9887 1.64947 10.0191 2.04126C8.04943 2.43304 6.24019 3.4001 4.82015 4.82015C3.40011 6.24019 2.43305 8.04943 2.04126 10.0191C1.64947 11.9887 1.85055 14.0303 2.61907 15.8857C3.38759 17.7411 4.68904 19.3269 6.35883 20.4426C8.02862 21.5583 9.99176 22.1538 12 22.1538C14.692 22.1508 17.2729 21.08 19.1765 19.1765C21.08 17.2729 22.1508 14.692 22.1538 12Z" fill="url(#paint0_linear_18_839)"/>
    </g>
    <defs>
        <linearGradient id="paint0_linear_18_839" x1="-3.241e-07" y1="24" x2="24.3176" y2="23.6389" gradientUnits="userSpaceOnUse">
            <stop stop-color="#6A11CB"/>
            <stop offset="1" stop-color="#2575FC"/>
        </linearGradient>
        <clipPath id="clip0_18_839">
            <rect width="24" height="24" fill="white"/>
        </clipPath>
    </defs>
</svg>
