<svg width="25" height="24" viewBox="0 0 25 24" fill="none" xmlns="http://www.w3.org/2000/svg">
    <path d="M9.17818 7.00007C9.17818 5.19305 10.4062 3.96498 12.2133 3.96498C14.0203 3.96498 15.2484 5.19305 15.2484 7.00007C15.2484 8.80709 14.0203 10.0352 12.2133 10.0352C10.4062 10.0352 9.17818 8.80709 9.17818 7.00007ZM7.24835 7.00007C7.24835 9.73691 9.47642 11.965 12.2133 11.965C14.9501 11.965 17.1782 9.73691 17.1782 7.00007C17.1782 4.26323 14.9501 2.03516 12.2133 2.03516C9.47642 2.03516 7.24835 4.26323 7.24835 7.00007ZM4.17818 18.0001C4.17818 16.4211 7.45888 14.965 12.2133 14.965C16.9677 14.965 20.2484 16.4211 20.2484 18.0001C20.2484 19.2457 19.4589 20.0352 18.2133 20.0352H6.21326C4.96765 20.0352 4.17818 19.2457 4.17818 18.0001ZM2.24835 18.0001C2.24835 20.1755 4.03783 21.965 6.21326 21.965H18.2133C20.3887 21.965 22.1782 20.1755 22.1782 18.0001C22.1782 15.0176 17.5291 13.0352 12.2133 13.0352C6.89748 13.0352 2.24835 15.0176 2.24835 18.0001Z" fill="#F3F5F8"/>
</svg>
