<svg width="24" height="24" viewBox="0 0 24 24" fill="none" xmlns="http://www.w3.org/2000/svg">
    <g clip-path="url(#clip0_18_841)">
        <path d="M12 0C9.62663 0 7.30655 0.703788 5.33316 2.02236C3.35977 3.34094 1.8217 5.21508 0.913451 7.4078C0.00519943 9.60051 -0.232441 12.0133 0.230582 14.3411C0.693605 16.6689 1.83649 18.807 3.51472 20.4853C5.19295 22.1635 7.33115 23.3064 9.65892 23.7694C11.9867 24.2324 14.3995 23.9948 16.5922 23.0865C18.7849 22.1783 20.6591 20.6402 21.9776 18.6668C23.2962 16.6934 24 14.3734 24 12C23.9966 8.81843 22.7313 5.76814 20.4816 3.51843C18.2319 1.26872 15.1816 0.00335979 12 0ZM12 22.1538C9.99176 22.1538 8.02862 21.5583 6.35883 20.4426C4.68904 19.3269 3.38759 17.7411 2.61907 15.8857C1.85055 14.0303 1.64947 11.9887 2.04126 10.0191C2.43305 8.04943 3.40011 6.24019 4.82015 4.82015C6.24019 3.4001 8.04943 2.43304 10.0191 2.04126C11.9887 1.64947 14.0303 1.85055 15.8857 2.61907C17.7411 3.38759 19.3269 4.68903 20.4426 6.35882C21.5583 8.02861 22.1538 9.99176 22.1538 12C22.1508 14.692 21.08 17.2729 19.1765 19.1765C17.2729 21.08 14.692 22.1508 12 22.1538ZM17.5385 12C17.5385 12.2448 17.4412 12.4796 17.2681 12.6527C17.095 12.8258 16.8602 12.9231 16.6154 12.9231H12.9231V16.6154C12.9231 16.8602 12.8258 17.095 12.6527 17.2681C12.4796 17.4412 12.2448 17.5385 12 17.5385C11.7552 17.5385 11.5204 17.4412 11.3473 17.2681C11.1742 17.095 11.0769 16.8602 11.0769 16.6154V12.9231H7.38462C7.1398 12.9231 6.90502 12.8258 6.73191 12.6527C6.55879 12.4796 6.46154 12.2448 6.46154 12C6.46154 11.7552 6.55879 11.5204 6.73191 11.3473C6.90502 11.1742 7.1398 11.0769 7.38462 11.0769H11.0769V7.38461C11.0769 7.1398 11.1742 6.90501 11.3473 6.7319C11.5204 6.55879 11.7552 6.46154 12 6.46154C12.2448 6.46154 12.4796 6.55879 12.6527 6.7319C12.8258 6.90501 12.9231 7.1398 12.9231 7.38461V11.0769H16.6154C16.8602 11.0769 17.095 11.1742 17.2681 11.3473C17.4412 11.5204 17.5385 11.7552 17.5385 12Z" fill="url(#paint0_linear_18_841)"/>
    </g>
    <defs>
        <linearGradient id="paint0_linear_18_841" x1="-3.241e-07" y1="24" x2="24.3176" y2="23.6389" gradientUnits="userSpaceOnUse">
            <stop stop-color="#6A11CB"/>
            <stop offset="1" stop-color="#2575FC"/>
        </linearGradient>
        <clipPath id="clip0_18_841">
            <rect width="24" height="24" fill="white"/>
        </clipPath>
    </defs>
</svg>
