<svg width="11" height="7" viewBox="0 0 11 7" fill="none" xmlns="http://www.w3.org/2000/svg">
    <path d="M5.34422 0C5.45832 0 5.5689 0.0192332 5.67595 0.0576997C5.783 0.0961666 5.88332 0.162192 5.9769 0.255775L10.4865 4.76537C10.6314 4.91024 10.7013 5.08332 10.6961 5.2846C10.691 5.48588 10.616 5.65896 10.4711 5.80382C10.3263 5.94869 10.1506 6.02113 9.94422 6.02113C9.73782 6.02113 9.56219 5.94869 9.41732 5.80382L5.34422 1.73073L1.25575 5.8192C1.11088 5.96407 0.937808 6.03394 0.736525 6.02882C0.535258 6.02369 0.362191 5.94869 0.217324 5.80382C0.0724411 5.65896 0 5.48332 0 5.2769C0 5.0705 0.0724411 4.89487 0.217324 4.75L4.71155 0.255775C4.80513 0.162192 4.90385 0.0961666 5.0077 0.0576997C5.11153 0.0192332 5.22371 0 5.34422 0Z" fill="#303461"/>
</svg>
